# xmcd
#
# Track frame offsets:
#	150
#	26637
#	45036
#	61613
#	83861
#	103271
#	119210
#	134796
#	157234
#	181615
#	198901
#	215245
#	236004
#
# Disc length: 3420 seconds
#
# Revision: 29
# Processed by: cddbd v1.5.2PL0 Copyright (c) Steve Scherf et al.
# Submitted via: Jack! The Knife 20 Magnifico
#
DISCID=bb0d5a0d
DTITLE=Scorpions - Unbreakable
DYEAR=2004
DGENRE=Hard Rock
TTITLE0=New Generation
TTITLE1=Love'em Or Leave'em
TTITLE2=Deep And Dark
TTITLE3=Borderline
TTITLE4=Blood Too Hot
TTITLE5=Maybe I Maybe You
TTITLE6=Someday Is Now
TTITLE7=My City My Town
TTITLE8=Through My Eyes
TTITLE9=Can You Feel It
TTITLE10=This Time
TTITLE11=She Said
TTITLE12=Remember The Good Times (Retro Garage Mix)
EXTD=Erwin Musper and Scorpions
EXTT0=Rudolf Schenker
EXTT1=Rudolf Schenker
EXTT2=Matthias Jabs
EXTT3=Rudolf Schenker
EXTT4=Rudolf Schenker
EXTT5=Anoushiravan Rohani
EXTT6=Rudolf Schenker
EXTT7=Klaus Meine
EXTT8=Rudolf Schenker
EXTT9=James Kottak
EXTT10=Matthias Jabs
EXTT11=Meine, Kolonovits
EXTT12=Schenker, Bazilian
PLAYORDER=
